<svg width="700" height="700" viewBox="0 0 700 700" fill="none" xmlns="http://www.w3.org/2000/svg" role="img" aria-labelledby="title desc">
  <title id="title">Logo Ellen Crochê</title>
  <desc id="desc">Monograma EC com estilo minimalista em tons terrosos.</desc>
  <rect width="700" height="700" fill="#F2EBE6"/>
  <circle cx="350" cy="270" r="175" stroke="#9C7B63" stroke-width="2.5"/>
  <path d="M194 198C226 140 302 101 370 101" stroke="#9C7B63" stroke-width="2.5" stroke-linecap="round"/>
  <text x="300" y="328" text-anchor="middle" fill="#B27A74" font-family="Cormorant Garamond, serif" font-size="190" font-weight="600">E</text>
  <text x="390" y="385" text-anchor="middle" fill="#8D6B54" font-family="Cormorant Garamond, serif" font-size="190" font-weight="500">C</text>
  <circle cx="476" cy="350" r="48" stroke="#B27A74" stroke-width="3"/>
  <path d="M508 383L552 286" stroke="#8D6B54" stroke-width="8" stroke-linecap="round"/>
  <path d="M544 281C551 271 559 273 562 281" stroke="#8D6B54" stroke-width="4" stroke-linecap="round"/>
  <text x="350" y="510" text-anchor="middle" fill="#8D6B54" font-family="Cormorant Garamond, serif" font-size="64" letter-spacing="12">ELLEN CROCHÊ</text>
  <line x1="210" y1="548" x2="295" y2="548" stroke="#B27A74" stroke-width="2"/>
  <line x1="405" y1="548" x2="490" y2="548" stroke="#B27A74" stroke-width="2"/>
  <text x="350" y="595" text-anchor="middle" fill="#8D6B54" font-family="Montserrat, sans-serif" font-size="23" letter-spacing="6">FEITO À MÃO, COM AMOR</text>
  <path d="M342 543C345 534 355 534 358 543C356 548 352 551 350 553C347 551 344 548 342 543Z" fill="#B27A74"/>
</svg>
